<?xml version="1.0" encoding="UTF-8" standalone="no"?>
<!-- Created with Inkscape (http://www.inkscape.org/) -->

<svg
   xmlns:dc="http://purl.org/dc/elements/1.1/"
   xmlns:cc="http://creativecommons.org/ns#"
   xmlns:rdf="http://www.w3.org/1999/02/22-rdf-syntax-ns#"
   xmlns:svg="http://www.w3.org/2000/svg"
   xmlns="http://www.w3.org/2000/svg"
   xmlns:sodipodi="http://sodipodi.sourceforge.net/DTD/sodipodi-0.dtd"
   xmlns:inkscape="http://www.inkscape.org/namespaces/inkscape"
   version="1.1"
   id="svg4588"
   xml:space="preserve"
   width="182.07266"
   height="160.86317"
   viewBox="0 0 182.07266 160.86317"
   sodipodi:docname="Acerta.svg"
   inkscape:version="0.92.2 2405546, 2018-03-11"><metadata
     id="metadata4594"><rdf:RDF><cc:Work
         rdf:about=""><dc:format>image/svg+xml</dc:format><dc:type
           rdf:resource="http://purl.org/dc/dcmitype/StillImage" /><dc:title></dc:title></cc:Work></rdf:RDF></metadata><defs
     id="defs4592" /><sodipodi:namedview
     pagecolor="#ffffff"
     bordercolor="#666666"
     borderopacity="1"
     objecttolerance="10"
     gridtolerance="10"
     guidetolerance="10"
     inkscape:pageopacity="0"
     inkscape:pageshadow="2"
     inkscape:window-width="1920"
     inkscape:window-height="1080"
     id="namedview4590"
     showgrid="false"
     inkscape:zoom="1.5261629"
     inkscape:cx="395.72132"
     inkscape:cy="-63.221504"
     inkscape:window-x="0"
     inkscape:window-y="1080"
     inkscape:window-maximized="0"
     inkscape:current-layer="g4596"
     fit-margin-top="0"
     fit-margin-left="0"
     fit-margin-right="0"
     fit-margin-bottom="0" /><g
     id="g4596"
     inkscape:groupmode="layer"
     inkscape:label="ink_ext_XXXXXX"
     transform="matrix(1.3333333,0,0,-1.3333333,-6.7916226,556.2904)"><g
       id="g4598"
       transform="matrix(0.1,0,0,0.1,-114.01143,17.691428)"><path
         d="m 1236.5658,3243.0843 c -77.58,289.52 144.84,600.69 496.78,695 351.96,94.29 700.16,-63.96 777.74,-353.49 77.57,-289.53 -144.85,-600.69 -496.8,-694.99 -351.94,-94.31 -700.15,63.95 -777.72,353.48 z"
         style="fill:none;stroke:#8dd132;stroke-width:60;stroke-linecap:butt;stroke-linejoin:round;stroke-miterlimit:10;stroke-dasharray:none;stroke-opacity:1"
         id="path4600"
         inkscape:connector-curvature="0" /><path
         d="m 1314.8658,3260.2343 c -68.21,254.57 127.35,528.14 436.79,611.06 309.44,82.91 615.58,-56.23 683.79,-310.79 68.2,-254.56 -127.34,-528.14 -436.79,-611.05 -309.44,-82.91 -615.58,56.23 -683.79,310.78 z"
         style="fill:none;stroke:#8dd132;stroke-width:30;stroke-linecap:butt;stroke-linejoin:round;stroke-miterlimit:10;stroke-dasharray:none;stroke-opacity:1"
         id="path4602"
         inkscape:connector-curvature="0" /><path
         d="m 1864.398,3199.6801 -131.0336,347.1302 c -10.3569,25.6958 -22.8292,61.2053 -37.093,105.6152 -11.2701,-39.0003 -23.6268,-74.9721 -36.7925,-107.037 L 1524.5383,3199.6801 Z M 2024.4332,2788.79 1889.2499,3133.8627 H 1497.6404 L 1361.8214,2788.79 H 1280.33 l 393.8289,983.7457 h 47.2072 L 2107.2192,2788.79 Z"
         style="fill:#0b1620;fill-opacity:1;fill-rule:nonzero;stroke:none;stroke-width:1.15590644"
         id="path4606"
         inkscape:connector-curvature="0"
         sodipodi:nodetypes="ccccccccccccccc" /></g></g></svg>